Coordinates
nRows=4
nColumns=38

# SIMM Motion File Header:
name Coordinates
datacolumns 38
datarows 4
otherdata 1
range 1.79940000000000010000 1.80240000000000000000

Units are S.I. units (second, meters, Newtons, ...)
Angles are in degrees.

endheader
time	pelvis_tilt	pelvis_list	pelvis_rotation	pelvis_tx	pelvis_ty	pelvis_tz	hip_flexion_r	hip_adduction_r	hip_rotation_r	knee_angle_r	ankle_angle_r	subtalar_angle_r	mtp_angle_r	hip_flexion_l	hip_adduction_l	hip_rotation_l	knee_angle_l	ankle_angle_l	subtalar_angle_l	mtp_angle_l	lumbar_extension	lumbar_bending	lumbar_rotation	arm_flex_r	arm_add_r	arm_rot_r	elbow_flex_r	pro_sup_r	wrist_flex_r	wrist_dev_r	arm_flex_l	arm_add_l	arm_rot_l	elbow_flex_l	pro_sup_l	wrist_flex_l	wrist_dev_l
      1.79940000000000010000	     -2.77324641345327820000	      6.40296354095220280000	      2.61436136537964580000	      0.90725046252554231000	      0.96528567781472929000	     -0.27184106018962123000	     42.27241126149464600000	     -7.45299187198252170000	      2.51743705065102660000	   -104.12368160536586000000	      2.25213173905943580000	     -0.00000000000011196340	     -0.00000000000008099691	      3.59791932854814430000	     16.22052271727664100000	      8.89970941100508030000	    -31.03789432576811400000	     19.33350524408300700000	      0.00000000000001102859	      0.00000000000004658943	    -12.45767888815547900000	     -6.08922746825740100000	    -15.51660792775791900000	    -36.30559662317316600000	    -25.30739152581960400000	      2.12205426409540900000	     67.58773520425016600000	    103.35338734317010000000	      0.00000000000001056146	     -0.00000000000004857518	    -16.37621303191203700000	    -20.06822879749444900000	     -3.86171702548362190000	    113.55165296530483000000	    112.99359141585310000000	     -0.00000000000000003204	      0.00000000000001648196
      1.80040000000000000000	     -2.80205271459660520000	      6.30757363096582680000	      2.60506645400071510000	      0.90757307586529656000	      0.96600901988072108000	     -0.27180647517335593000	     42.38880175905187300000	     -7.32695604680780300000	      2.48652017604003990000	   -103.74266144908835000000	      2.37403389319709390000	     -0.00000000000011248262	     -0.00000000000008101977	      3.22709943853779670000	     16.09400875501543400000	      9.08281042942318000000	    -30.67193562161334300000	     19.11989620576624200000	      0.00000000000001065652	      0.00000000000004582085	    -12.36693973523931300000	     -5.96767818364365250000	    -15.60921360555993900000	    -36.50539774993752200000	    -25.40136274062400200000	      2.07899063322682400000	     67.75196930615968000000	    103.29340523730272000000	      0.00000000000001065818	     -0.00000000000004840045	    -16.34034138946895700000	    -20.06158734684218100000	     -3.83862078335592960000	    113.68632133808384000000	    112.98500332111541000000	     -0.00000000000000005840	      0.00000000000001647203
      1.80140000000000010000	     -2.83072969690485590000	      6.21106625494664840000	      2.59622697496625450000	      0.90790100892617320000	      0.96673979420558231000	     -0.27176965258248403000	     42.50082159591593000000	     -7.20049704555774550000	      2.45321419198783450000	   -103.35578473562497000000	      2.49468598749872640000	     -0.00000000000011301604	     -0.00000000000008104398	      2.85619621709539300000	     15.96509525779424600000	      9.26592886383380150000	    -30.30436496109926000000	     18.89714479059687600000	      0.00000000000001020088	      0.00000000000004506526	    -12.27569884928374400000	     -5.84517263905037330000	    -15.70131176823194400000	    -36.70587398250353300000	    -25.49424196231828400000	      2.03449697860917440000	     67.91686576425340100000	    103.23361901094457000000	      0.00000000000001075087	     -0.00000000000004820898	    -16.30658559965564400000	    -20.05557774024717000000	     -3.81451114646259050000	    113.82079263512007000000	    112.97813703245087000000	     -0.00000000000000008518	      0.00000000000001646170
      1.80240000000000000000	     -2.85928834628822500000	      6.11346563957549270000	      2.58775446514095100000	      0.90823410276347849000	      0.96747774808438403000	     -0.27173048049412235000	     42.60856175527250400000	     -7.07357223615412070000	      2.41765721678463750000	   -102.96311536532538000000	      2.61396350775099330000	     -0.00000000000011356054	     -0.00000000000008106952	      2.48536213098979490000	     15.83376567232760500000	      9.44871723783119850000	    -29.93531818757943300000	     18.66516994983291200000	      0.00000000000000968647	      0.00000000000004430742	    -12.18396502943394900000	     -5.72175192507123680000	    -15.79282591735903600000	    -36.90696427127571200000	    -25.58600206127744100000	      1.98854276401863390000	     68.08232859924547100000	    103.17418458207075000000	      0.00000000000001083446	     -0.00000000000004800915	    -16.27492885348773700000	    -20.05017794233522100000	     -3.78942809790422830000	    113.95502859369272000000	    112.97313035840153000000	     -0.00000000000000011172	      0.00000000000001645113
